<!-- This Source Code Form is subject to the terms of the Mozilla Public
   - License, v. 2.0. If a copy of the MPL was not distributed with this
   - file, You can obtain one at http://mozilla.org/MPL/2.0/. -->

<svg width="21" height="25" viewBox="0 0 21 25" fill="none" xmlns="http://www.w3.org/2000/svg">
<circle cx="10.5" cy="11" r="10.5" fill="url(#paint0_linear_472_34283)"/>
<g filter="url(#filter0_d_472_34283)">
<path d="M8.17775 7.31625L9.7475 4.44625C10.073 3.85125 10.9253 3.85125 11.2507 4.44625L12.8205 7.31625C13.1355 7.892 13.608 8.3645 14.182 8.67775L17.052 10.2475C17.647 10.573 17.647 11.4253 17.052 11.7507L14.182 13.3205C13.6062 13.6355 13.1337 14.108 12.8205 14.682L11.2507 17.552C10.9253 18.147 10.073 18.147 9.7475 17.552L8.17775 14.682C7.86275 14.1062 7.39025 13.6337 6.81625 13.3205L3.94625 11.7525C3.35125 11.427 3.35125 10.5747 3.94625 10.2493L6.81625 8.6795C7.39025 8.3645 7.8645 7.89025 8.17775 7.31625Z" fill="url(#paint1_linear_472_34283)" shape-rendering="crispEdges"/>
</g>
<defs>
<filter id="filter0_d_472_34283" x="0" y="4" width="20.998" height="20.9983" filterUnits="userSpaceOnUse" color-interpolation-filters="sRGB">
<feFlood flood-opacity="0" result="BackgroundImageFix"/>
<feColorMatrix in="SourceAlpha" type="matrix" values="0 0 0 0 0 0 0 0 0 0 0 0 0 0 0 0 0 0 127 0" result="hardAlpha"/>
<feOffset dy="3.5"/>
<feGaussianBlur stdDeviation="1.75"/>
<feComposite in2="hardAlpha" operator="out"/>
<feColorMatrix type="matrix" values="0 0 0 0 0 0 0 0 0 0 0 0 0 0 0 0 0 0 0.25 0"/>
<feBlend mode="normal" in2="BackgroundImageFix" result="effect1_dropShadow_472_34283"/>
<feBlend mode="normal" in="SourceGraphic" in2="effect1_dropShadow_472_34283" result="shape"/>
</filter>
<linearGradient id="paint0_linear_472_34283" x1="0" y1="11" x2="21" y2="11" gradientUnits="userSpaceOnUse">
<stop stop-color="#8341CA"/>
<stop offset="1" stop-color="#656FFF"/>
</linearGradient>
<linearGradient id="paint1_linear_472_34283" x1="10.4991" y1="4" x2="10.4991" y2="17.9983" gradientUnits="userSpaceOnUse">
<stop stop-color="white"/>
<stop offset="1" stop-color="white" stop-opacity="0.1"/>
</linearGradient>
</defs>
</svg>