<!-- This Source Code Form is subject to the terms of the Mozilla Public
   - License, v. 2.0. If a copy of the MPL was not distributed with this
   - file, You can obtain one at http://mozilla.org/MPL/2.0/. -->

<svg width="26" height="27" viewBox="0 0 26 27" fill="none" xmlns="http://www.w3.org/2000/svg">
<rect x="1.63818" y="1.31909" width="23.362" height="23.362" rx="11.681" fill="#D6B4FD"/>
<rect x="1.63818" y="1.31909" width="23.362" height="23.362" rx="11.681" stroke="#D6B4FD" stroke-width="2"/>
<circle cx="13.3193" cy="13" r="10.5" fill="url(#paint0_linear_362_8041)"/>
<g filter="url(#filter0_d_362_8041)">
<path d="M10.9971 9.31625L12.5668 6.44625C12.8923 5.85125 13.7446 5.85125 14.0701 6.44625L15.6398 9.31625C15.9548 9.892 16.4273 10.3645 17.0013 10.6777L19.8713 12.2475C20.4663 12.573 20.4663 13.4253 19.8713 13.7507L17.0013 15.3205C16.4256 15.6355 15.9531 16.108 15.6398 16.682L14.0701 19.552C13.7446 20.147 12.8923 20.147 12.5668 19.552L10.9971 16.682C10.6821 16.1062 10.2096 15.6337 9.63559 15.3205L6.76559 13.7525C6.17059 13.427 6.17059 12.5747 6.76559 12.2493L9.63559 10.6795C10.2096 10.3645 10.6838 9.89025 10.9971 9.31625Z" fill="url(#paint1_linear_362_8041)" shape-rendering="crispEdges"/>
</g>
<defs>
<filter id="filter0_d_362_8041" x="2.81934" y="6" width="20.998" height="20.9983" filterUnits="userSpaceOnUse" color-interpolation-filters="sRGB">
<feFlood flood-opacity="0" result="BackgroundImageFix"/>
<feColorMatrix in="SourceAlpha" type="matrix" values="0 0 0 0 0 0 0 0 0 0 0 0 0 0 0 0 0 0 127 0" result="hardAlpha"/>
<feOffset dy="3.5"/>
<feGaussianBlur stdDeviation="1.75"/>
<feComposite in2="hardAlpha" operator="out"/>
<feColorMatrix type="matrix" values="0 0 0 0 0 0 0 0 0 0 0 0 0 0 0 0 0 0 0.25 0"/>
<feBlend mode="normal" in2="BackgroundImageFix" result="effect1_dropShadow_362_8041"/>
<feBlend mode="normal" in="SourceGraphic" in2="effect1_dropShadow_362_8041" result="shape"/>
</filter>
<linearGradient id="paint0_linear_362_8041" x1="2.81934" y1="13" x2="23.8193" y2="13" gradientUnits="userSpaceOnUse">
<stop stop-color="#8341CA"/>
<stop offset="1" stop-color="#656FFF"/>
</linearGradient>
<linearGradient id="paint1_linear_362_8041" x1="13.3185" y1="6" x2="13.3185" y2="19.9983" gradientUnits="userSpaceOnUse">
<stop stop-color="white"/>
<stop offset="1" stop-color="white" stop-opacity="0.1"/>
</linearGradient>
</defs>
</svg>
